
        <svg xmlns="http://www.w3.org/2000/svg" xmlns:xlink="http://www.w3.org/1999/xlink" version="1.1" width="3171.4285714285716" 
        height="1582.8445152711965" viewBox="0 0 3171.4285714285716 1582.8445152711965">
			<rect fill="#0d3b66" width="3171.4285714285716" height="1582.8445152711965"/>
			<g transform="scale(8.571428571428571) translate(10, 10)">
				<defs id="SvgjsDefs3980"></defs><g id="SvgjsG3981" featureKey="symbolFeature-0" transform="matrix(1.4000095129013062,0,0,1.4000095129013062,104.97577347994535,-24.567364616046966)" fill="#ee964b"><g xmlns="http://www.w3.org/2000/svg"><path d="M19.052,30.137c3.989,1.021,6.533-0.342,6.533-0.342s21.898-9.672,25.208-11.455c3.311-1.782,7.129,0,7.129,0   s14.345,7.89,16.122,8.911c1.787,1.021,3.818,5.093,1.699,9.252c-2.119,4.155-8.398,1.357-8.398,1.357l-14.008-7.807   c-9.252,2.885-42.181,28.431-42.181,28.431L0.293,56.107c-1.699-19.857,5.01-28.856,5.01-28.856S15.063,29.117,19.052,30.137z    M95.177,27.759l-9.589,2.378c0,0-4.326,0.596-5.85,0c0,0,1.436,5.234-0.938,7.88s-4.16,4.087-7.979,4.087   s-5.684-1.611-7.128-2.544c-1.445-0.933-10.103-5.859-10.103-5.859S41.625,38.623,13.96,60.78c0,0-3.398,2.207-1.191,5.684   c0,0,2.036,2.881,6.113,0c4.072-2.891,12.812-8.828,12.812-8.828s0.938-0.596,1.528,0c0.596,0.596,0.259,0.938-0.166,1.357   s-12.138,8.75-12.138,8.75s-1.528,1.777,0.254,3.808c1.782,2.041,2.803,2.207,5.176,0.596c2.377-1.611,12.733-9.667,12.733-9.667   s1.357-0.85,2.036,0.078c0.679,0.938,0.508,1.191,0,1.699S29.491,72.83,29.491,72.83s-1.782,1.777-0.171,3.564   s3.481,2.031,5.688,0.42s7.89-5.938,7.89-5.938s1.104-1.103,2.207-0.254c1.104,0.85-0.425,2.119-0.425,2.119l-6.347,4.58   c0,0-1.714,1.533,0.83,3.486c2.549,1.953,2.632,1.445,4.839,0s5.263-3.818,5.263-3.818s-4.584-9.169,1.357-13.163   c0,0,2.378-1.689,5.259-1.777c0,0,0-4.756,4.844-6.196c4.833-1.445,6.532,1.187,6.532,1.187s1.533-2.28,4.58-2.119   c3.057,0.166,4.814,1.357,4.814,1.357s1.475-2.124,4.951-1.953s6.532,4.58,6.532,4.58l11.631-2.29   C99.767,56.615,101.632,38.54,95.177,27.759z M85.334,63.153c0,0-0.166-3.818-1.865-4.668s-5.43-1.357-6.279,2.334l-0.537,0.127   c0,0-0.996-2.461-4.727-2.461c0,0-3.311-0.254-3.223,3.652l-0.938,0.078c0,0-1.699-4.404-5.517-2.793   c-3.818,1.611-3.652,4.326-2.285,7.383c0,0-0.664,0.508-0.889,0.508c-0.215,0-2.002-3.057-4.717-1.699c0,0-3.735,0.43-2.119,7.216   c1.611,6.787,1.523,5.771,1.523,5.771s0.938,4.16,4.59,2.969c3.643-1.191,3.135-4.16,2.969-5.01c0,0,3.983,2.979,6.112,2.129   c2.119-0.85,3.135-2.637,2.793-6.201c0,0,1.699,3.311,4.756,2.373c3.057-0.928,2.803-3.984,2.969-4.403c0,0,1.104,2.372,3.652,1.61   C84.143,71.297,84.738,68.075,85.334,63.153z"></path></g></g><g id="SvgjsG3982" featureKey="nameFeature-0" transform="matrix(1.181167483329773,0,0,1.181167483329773,-3.5435025641844273,97.43238167263405)" fill="#ffffff"><path d="M22.88 40 l-19.88 0 l0 -28.48 l5.36 0 l0 23.24 l14.52 0 l0 5.24 z M37.527 40.4 c-6.12 0 -11.08 -4.96 -11.08 -11.08 l0 -17.8 l5.32 0 l0 17.8 c0 3.2 2.6 5.84 5.76 5.84 c3.2 0 5.76 -2.64 5.76 -5.84 l0 -17.8 l5.36 0 l0 17.8 c0 2.96 -1.16 5.76 -3.24 7.84 c-2.12 2.08 -4.92 3.24 -7.88 3.24 z M68.53399999999999 40.44 c-2 0 -3.96 -0.4 -5.8 -1.16 c-1.76 -0.76 -3.36 -1.84 -4.72 -3.2 c-1.4 -1.36 -2.48 -2.96 -3.2 -4.76 c-0.8 -1.84 -1.2 -3.76 -1.2 -5.8 c0 -8.2 6.72 -14.88 14.92 -14.88 c2.32 0 4.64 0.56 6.68 1.6 c2.04 1 3.88 2.56 5.24 4.4 l0.64 0.8 l-4.28 3.16 l-0.6 -0.8 c-1.8 -2.44 -4.6 -3.84 -7.68 -3.84 c-5.28 0 -9.6 4.28 -9.6 9.56 c0 5.32 4.32 9.64 9.6 9.64 c3.04 0 5.84 -1.4 7.68 -3.84 l0.6 -0.76 l4.24 3.12 l-0.64 0.8 c-1.4 1.88 -3.16 3.36 -5.24 4.4 c-2.04 1.04 -4.32 1.56 -6.64 1.56 z M92.74100000000001 40 l-5.36 0 l0 -28.48 l5.36 0 l0 28.48 z M110.108 40 l-9.56 0 l0 -28.48 l9.56 0 c8.04 0 14.6 6.4 14.6 14.24 s-6.56 14.24 -14.6 14.24 z M105.86800000000001 34.76 l4.24 0 c5.12 0 9.28 -4.04 9.28 -9 s-4.16 -9 -9.28 -9 l-4.24 0 l0 18 z M159.762 40 l-19.88 0 l0 -28.48 l5.36 0 l0 23.24 l14.52 0 l0 5.24 z M183.609 40 l-18.4 0 l0 -28.48 l18.76 0 l0 5.2 l-13.4 0 l0 4.2 l11.68 0 l0 5.32 l-11.68 0 l0 8.48 l13.04 0 l0 5.28 z M199.056 40 l-9.56 0 l0 -28.48 l9.56 0 c8.04 0 14.6 6.4 14.6 14.24 s-6.56 14.24 -14.6 14.24 z M194.816 34.76 l4.24 0 c5.12 0 9.28 -4.04 9.28 -9 s-4.16 -9 -9.28 -9 l-4.24 0 l0 18 z M232.06300000000002 40.44 c-8.2 0 -14.88 -6.68 -14.88 -14.92 c0 -8.2 6.68 -14.88 14.88 -14.88 c2 0 3.96 0.4 5.76 1.16 s3.44 1.84 4.8 3.24 l0.76 0.76 l-3.96 3.48 l-0.68 -0.64 c-1.72 -1.76 -4.08 -2.68 -6.68 -2.68 c-5.28 0 -9.56 4.28 -9.56 9.56 c0 5.32 4.28 9.64 9.56 9.64 c2.68 0 5.12 -1.08 7 -3 l0 -5.92 l-7.8 0 l0 -5.32 l13.04 0 l0 13.12 l-0.2 0.24 c-2.88 3.88 -7.36 6.16 -12.04 6.16 z M269.51 40 l-18.4 0 l0 -28.48 l18.76 0 l0 5.2 l-13.4 0 l0 4.2 l11.68 0 l0 5.32 l-11.68 0 l0 8.48 l13.04 0 l0 5.28 z M299.31699999999995 40 l-6.32 0 l-10.12 -13.92 l-2.28 0 l0 13.92 l-5.2 0 l0 -28.48 l10.2 0 c1.92 0 3.72 0.76 5.12 2.16 s2.16 3.2 2.16 5.12 c0 2.84 -1.68 5.4 -4.16 6.6 z M280.597 20.88 l5 0 c1.12 0 2.08 -0.92 2.08 -2.08 s-0.96 -2.08 -2.08 -2.08 l-5 0 l0 4.16 z"></path></g><g id="SvgjsG3983" featureKey="sloganFeature-0" transform="matrix(0.6486706733703613,0,0,0.6486706733703613,34.74053166761086,151.58799271272045)" fill="#f4d35e"><path d="M6.8 6.859999999999999 l0 13.14 l-1.52 0 l0 -13.14 l-4.88 0 l0 -1.44 l11.28 0 l0 1.44 l-4.88 0 z M26.226 20 l-1.86 0 l-4.32 -5.9 l-2.96 0 l0 5.9 l-1.54 0 l0 -14.58 l5.06 0 c1.72 0 3.1 0.48 3.9 1.28 s1.22 1.8 1.22 2.98 c0 2.46 -1.84 3.88 -4 4.16 z M17.086 6.859999999999999 l0 5.84 l3.38 0 c1.28 0 2.28 -0.36 2.86 -0.94 c0.56 -0.56 0.84 -1.26 0.84 -2.04 c0 -1.44 -0.88 -2.86 -3.66 -2.86 l-3.42 0 z M41.132 20 l-1.6 -3.72 l-7.94 0 l-1.6 3.72 l-1.56 0 l6.28 -14.58 l1.74 0 l6.3 14.58 l-1.62 0 z M38.952 14.879999999999999 l-3.4 -7.88 l-3.38 7.88 l6.78 0 z M56.657999999999994 5.42 l1.5 0 l0 14.58 l-1.66 0 l-8.7 -12.4 l0 12.4 l-1.52 0 l0 -14.58 l1.78 0 l8.6 12.26 l0 -12.26 z M67.704 20.14 c-1.38 0 -2.7 -0.52 -3.56 -1.28 c-0.9 -0.78 -1.48 -1.82 -1.6 -2.84 l1.44 -0.4 c0.16 0.86 0.6 1.58 1.32 2.18 c0.7 0.6 1.5 0.9 2.4 0.9 c0.84 0 1.62 -0.2 2.24 -0.64 c0.62 -0.42 1.02 -1.14 1.02 -2.02 c0 -1.02 -0.54 -1.68 -1.22 -2.08 c-0.48 -0.28 -0.9 -0.4 -1.38 -0.5 l-1.92 -0.38 c-0.4 -0.08 -0.82 -0.22 -1.28 -0.42 c-0.46 -0.22 -0.86 -0.48 -1.2 -0.82 c-0.68 -0.66 -1.02 -1.5 -1.02 -2.52 c0 -0.8 0.22 -1.52 0.66 -2.14 c0.44 -0.64 1 -1.1 1.7 -1.44 c0.7 -0.32 1.44 -0.48 2.26 -0.48 c3.14 0 4.52 1.94 4.82 3.5 l-1.4 0.44 c-0.24 -1.04 -1.18 -2.52 -3.44 -2.52 c-1.56 -0.04 -3.08 1.06 -3.06 2.58 c0 1.12 0.7 2.02 2.12 2.3 l1.84 0.36 c1.24 0.24 2.2 0.66 2.84 1.28 c0.44 0.4 0.76 0.86 0.96 1.34 c0.2 0.5 0.3 0.94 0.3 1.34 c0.02 2.56 -2.14 4.32 -4.84 4.26 z M81.68999999999998 14.3 l-3.1 0 l0 5.7 l-1.54 0 l0 -14.58 l4.88 0 c3.56 -0.02 5.12 2.12 5.12 4.38 c0 1.26 -0.48 2.36 -1.34 3.18 c-0.88 0.82 -2.3 1.32 -4.02 1.32 z M81.80999999999999 6.859999999999999 l-3.22 0 l0 6.02 l3.14 0 c1.3 0 2.32 -0.38 2.9 -0.98 c0.58 -0.58 0.86 -1.3 0.86 -2.06 c0 -1.42 -0.82 -2.98 -3.68 -2.98 z M101.916 20 l-1.6 -3.72 l-7.94 0 l-1.6 3.72 l-1.56 0 l6.28 -14.58 l1.74 0 l6.3 14.58 l-1.62 0 z M99.73599999999999 14.879999999999999 l-3.4 -7.88 l-3.38 7.88 l6.78 0 z M117.74199999999999 20 l-1.86 0 l-4.32 -5.9 l-2.96 0 l0 5.9 l-1.54 0 l0 -14.58 l5.06 0 c1.72 0 3.1 0.48 3.9 1.28 s1.22 1.8 1.22 2.98 c0 2.46 -1.84 3.88 -4 4.16 z M108.60199999999999 6.859999999999999 l0 5.84 l3.38 0 c1.28 0 2.28 -0.36 2.86 -0.94 c0.56 -0.56 0.84 -1.26 0.84 -2.04 c0 -1.44 -0.88 -2.86 -3.66 -2.86 l-3.42 0 z M121.90799999999999 20 l0 -14.58 l9.12 0 l0 1.42 l-7.58 0 l0 5.04 l6.94 0 l0 1.42 l-6.94 0 l0 5.28 l7.66 0 l0 1.42 l-9.2 0 z M146.094 5.42 l1.5 0 l0 14.58 l-1.66 0 l-8.7 -12.4 l0 12.4 l-1.52 0 l0 -14.58 l1.78 0 l8.6 12.26 l0 -12.26 z M157.88 6.859999999999999 l0 13.14 l-1.52 0 l0 -13.14 l-4.88 0 l0 -1.44 l11.28 0 l0 1.44 l-4.88 0 z M166.266 19.78 c-0.26 -0.28 -0.4 -0.58 -0.4 -0.96 c0 -0.36 0.14 -0.68 0.4 -0.94 s0.56 -0.38 0.94 -0.38 s0.68 0.12 0.94 0.38 s0.4 0.58 0.4 0.94 c0 0.38 -0.14 0.68 -0.4 0.96 c-0.26 0.26 -0.56 0.38 -0.94 0.38 s-0.68 -0.12 -0.94 -0.38 z M181.45799999999997 6.859999999999999 l0 5.24 l6.86 0 l0 1.4 l-6.86 0 l0 6.5 l-1.54 0 l0 -14.58 l9.04 0 l0 1.44 l-7.5 0 z M203.92399999999995 20 l-1.6 -3.72 l-7.94 0 l-1.6 3.72 l-1.56 0 l6.28 -14.58 l1.74 0 l6.3 14.58 l-1.62 0 z M201.74399999999997 14.879999999999999 l-3.4 -7.88 l-3.38 7.88 l6.78 0 z M209.06999999999996 20 l0 -14.58 l1.54 0 l0 14.58 l-1.54 0 z M226.77599999999995 20 l-1.86 0 l-4.32 -5.9 l-2.96 0 l0 5.9 l-1.54 0 l0 -14.58 l5.06 0 c1.72 0 3.1 0.48 3.9 1.28 s1.22 1.8 1.22 2.98 c0 2.46 -1.84 3.88 -4 4.16 z M217.63599999999997 6.859999999999999 l0 5.84 l3.38 0 c1.28 0 2.28 -0.36 2.86 -0.94 c0.56 -0.56 0.84 -1.26 0.84 -2.04 c0 -1.44 -0.88 -2.86 -3.66 -2.86 l-3.42 0 z M230.58199999999997 19.78 c-0.26 -0.28 -0.4 -0.58 -0.4 -0.96 c0 -0.36 0.14 -0.68 0.4 -0.94 s0.56 -0.38 0.94 -0.38 s0.68 0.12 0.94 0.38 s0.4 0.58 0.4 0.94 c0 0.38 -0.14 0.68 -0.4 0.96 c-0.26 0.26 -0.56 0.38 -0.94 0.38 s-0.68 -0.12 -0.94 -0.38 z M244.23399999999995 20 l0 -14.58 l4.34 0 c1.12 0 2.16 0.18 3.12 0.56 c0.96 0.36 1.78 0.88 2.44 1.52 c1.34 1.3 2.14 3.14 2.14 5.18 c0 1.06 -0.2 2.06 -0.6 2.98 s-0.96 1.68 -1.64 2.32 c-1.38 1.26 -3.34 2.02 -5.46 2.02 l-4.34 0 z M245.77399999999994 6.859999999999999 l0 11.7 l2.74 0 c1.22 0 2.3 -0.26 3.22 -0.76 c0.94 -0.5 1.68 -1.18 2.18 -2.06 c0.52 -0.88 0.78 -1.9 0.78 -3.02 c0 -1.66 -0.62 -3.14 -1.68 -4.2 c-1.04 -1.04 -2.66 -1.66 -4.5 -1.66 l-2.74 0 z M260.7399999999999 20 l0 -14.58 l9.12 0 l0 1.42 l-7.58 0 l0 5.04 l6.94 0 l0 1.42 l-6.94 0 l0 5.28 l7.66 0 l0 1.42 l-9.2 0 z M280.80599999999987 20.16 c-2 0 -3.86 -0.78 -5.16 -2.06 c-0.64 -0.64 -1.16 -1.42 -1.54 -2.34 c-0.38 -0.94 -0.58 -1.94 -0.58 -3 c0 -1.08 0.2 -2.1 0.6 -3.04 s0.92 -1.74 1.58 -2.38 c1.34 -1.3 3.2 -2.08 5.16 -2.08 c1.54 0 2.94 0.46 3.88 1.12 c0.48 0.32 0.9 0.7 1.28 1.12 c0.74 0.86 1.14 1.72 1.36 2.56 l-1.46 0.52 c-0.12 -0.48 -0.32 -1 -0.86 -1.76 c-0.28 -0.38 -0.58 -0.72 -0.94 -1.02 s-0.82 -0.56 -1.4 -0.76 c-0.58 -0.22 -1.2 -0.32 -1.9 -0.32 c-1.52 0 -2.98 0.62 -4 1.64 c-1.04 1.04 -1.7 2.58 -1.7 4.3 c0 1.14 0.24 2.18 0.74 3.1 c0.48 0.92 1.16 1.64 2.06 2.16 c0.86 0.52 1.84 0.78 2.92 0.78 c1.34 0 2.5 -0.46 3.2 -1.02 c0.36 -0.28 0.68 -0.6 0.96 -1 c0.28 -0.38 0.48 -0.72 0.62 -1 c0.12 -0.28 0.24 -0.58 0.34 -0.88 l1.46 0.52 c-0.22 0.78 -0.6 1.58 -1.34 2.48 c-0.36 0.44 -0.8 0.84 -1.26 1.18 c-0.96 0.68 -2.42 1.18 -4.02 1.18 z M291.61199999999985 20 l0 -14.58 l9.12 0 l0 1.42 l-7.58 0 l0 5.04 l6.94 0 l0 1.42 l-6.94 0 l0 5.28 l7.66 0 l0 1.42 l-9.2 0 z M315.79799999999983 5.42 l1.5 0 l0 14.58 l-1.66 0 l-8.7 -12.4 l0 12.4 l-1.52 0 l0 -14.58 l1.78 0 l8.6 12.26 l0 -12.26 z M327.5839999999999 6.859999999999999 l0 13.14 l-1.52 0 l0 -13.14 l-4.88 0 l0 -1.44 l11.28 0 l0 1.44 l-4.88 0 z M347.0099999999999 20 l-1.86 0 l-4.32 -5.9 l-2.96 0 l0 5.9 l-1.54 0 l0 -14.58 l5.06 0 c1.72 0 3.1 0.48 3.9 1.28 s1.22 1.8 1.22 2.98 c0 2.46 -1.84 3.88 -4 4.16 z M337.8699999999999 6.859999999999999 l0 5.84 l3.38 0 c1.28 0 2.28 -0.36 2.86 -0.94 c0.56 -0.56 0.84 -1.26 0.84 -2.04 c0 -1.44 -0.88 -2.86 -3.66 -2.86 l-3.42 0 z M361.9159999999999 20 l-1.6 -3.72 l-7.94 0 l-1.6 3.72 l-1.56 0 l6.28 -14.58 l1.74 0 l6.3 14.58 l-1.62 0 z M359.7359999999999 14.879999999999999 l-3.4 -7.88 l-3.38 7.88 l6.78 0 z M367.0619999999999 20 l0 -14.58 l1.54 0 l0 13.14 l6.92 0 l0 1.44 l-8.46 0 z M379.3679999999999 20 l0 -14.58 l1.54 0 l0 14.58 l-1.54 0 z M395.5739999999999 18.6 l0 1.4 l-10.52 0 l0 -1.4 l8.68 -11.78 l-8.38 0 l0 -1.4 l10.18 0 l0 1.4 l-8.72 11.78 l8.76 0 z M399.8199999999999 20 l0 -14.58 l9.12 0 l0 1.42 l-7.58 0 l0 5.04 l6.94 0 l0 1.42 l-6.94 0 l0 5.28 l7.66 0 l0 1.42 l-9.2 0 z M413.62599999999986 20 l0 -14.58 l4.34 0 c1.12 0 2.16 0.18 3.12 0.56 c0.96 0.36 1.78 0.88 2.44 1.52 c1.34 1.3 2.14 3.14 2.14 5.18 c0 1.06 -0.2 2.06 -0.6 2.98 s-0.96 1.68 -1.64 2.32 c-1.38 1.26 -3.34 2.02 -5.46 2.02 l-4.34 0 z M415.1659999999999 6.859999999999999 l0 11.7 l2.74 0 c1.22 0 2.3 -0.26 3.22 -0.76 c0.94 -0.5 1.68 -1.18 2.18 -2.06 c0.52 -0.88 0.78 -1.9 0.78 -3.02 c0 -1.66 -0.62 -3.14 -1.68 -4.2 c-1.04 -1.04 -2.66 -1.66 -4.5 -1.66 l-2.74 0 z M429.7719999999999 19.78 c-0.26 -0.28 -0.4 -0.58 -0.4 -0.96 c0 -0.36 0.14 -0.68 0.4 -0.94 s0.56 -0.38 0.94 -0.38 s0.68 0.12 0.94 0.38 s0.4 0.58 0.4 0.94 c0 0.38 -0.14 0.68 -0.4 0.96 c-0.26 0.26 -0.56 0.38 -0.94 0.38 s-0.68 -0.12 -0.94 -0.38 z"></path></g>
			</g>
		</svg>
	